# Blender v2.93.1 OBJ File: 'HelloBlender55.blend'
# www.blender.org
mtllib buildplane55.mtl
o Gridtastic_Gridtastic.001
v 0.000000 0.000000 0.000000
v 0.000000 0.025000 0.000000
v 0.000000 0.050000 0.000000
v 0.000000 0.075000 0.000000
v 0.000000 0.100000 0.000000
v 0.025000 0.000000 0.000000
v 0.025000 0.025000 0.000000
v 0.025000 0.050000 0.000000
v 0.025000 0.075000 0.000000
v 0.025000 0.100000 0.000000
v 0.050000 0.000000 0.000000
v 0.050000 0.025000 0.000000
v 0.050000 0.050000 0.000000
v 0.050000 0.075000 0.000000
v 0.050000 0.100000 0.000000
v 0.075000 0.000000 0.000000
v 0.075000 0.025000 0.000000
v 0.075000 0.050000 0.000000
v 0.075000 0.075000 0.000000
v 0.075000 0.100000 0.000000
v 0.100000 0.000000 0.000000
v 0.100000 0.025000 0.000000
v 0.100000 0.050000 0.000000
v 0.100000 0.075000 0.000000
v 0.100000 0.100000 0.000000
vn 0.0000 -0.0000 1.0000
usemtl None
s off
f 1//1 6//1 7//1 2//1
f 2//1 7//1 8//1 3//1
f 3//1 8//1 9//1 4//1
f 4//1 9//1 10//1 5//1
f 6//1 11//1 12//1 7//1
f 7//1 12//1 13//1 8//1
f 8//1 13//1 14//1 9//1
f 9//1 14//1 15//1 10//1
f 11//1 16//1 17//1 12//1
f 12//1 17//1 18//1 13//1
f 13//1 18//1 19//1 14//1
f 14//1 19//1 20//1 15//1
f 16//1 21//1 22//1 17//1
f 17//1 22//1 23//1 18//1
f 18//1 23//1 24//1 19//1
f 19//1 24//1 25//1 20//1
